<?xml version="1.0"?>
<svg xmlns="http://www.w3.org/2000/svg" viewBox="0 0 64 64" width="512" height="512"><g id="Outline"><g><circle cx="32" cy="24" r="1"/><path d="M35.01,38.744a1.34,1.34,0,0,1-1.613.668,3.313,3.313,0,0,0-2.9.388,1,1,0,1,0,1.109,1.664,1.329,1.329,0,0,1,1.16-.155,3.35,3.35,0,0,0,4.033-1.67,1,1,0,1,0-1.789-.9Z"/><path d="M50.38,53.112A27.991,27.991,0,0,1,10.888,13.619,1,1,0,1,0,9.38,12.306,29.991,29.991,0,0,0,51.694,54.62a1,1,0,1,0-1.314-1.508Z"/><path d="M32,2A29.974,29.974,0,0,0,12.306,9.38a1,1,0,1,0,1.313,1.508A27.992,27.992,0,0,1,53.112,50.381a1,1,0,1,0,1.508,1.313A29.991,29.991,0,0,0,32,2Z"/><path d="M13.045,46.712A23.987,23.987,0,0,1,30.079,8.084a1,1,0,1,0-.158-1.994A25.987,25.987,0,0,0,12.208,48.851a1,1,0,0,0,.721.351h.04a1,1,0,0,0,.707-.293L48.91,13.676a1,1,0,0,0-.058-1.468A25.786,25.786,0,0,0,34.079,6.094a1,1,0,0,0-.158,1.994,23.775,23.775,0,0,1,12.792,4.956L43.3,16.462a3.979,3.979,0,0,0,.724-1.971l.045-.549a1,1,0,1,0-1.992-.167l-.046.549a2.023,2.023,0,0,1-1.886,1.841,3.988,3.988,0,0,0-3.452,2.423l-.086.2a13.709,13.709,0,0,0-2.132-.562l.018-.174a2,2,0,0,1,1.3-1.672A4.028,4.028,0,0,0,38.3,11.766l-.118-.538a1,1,0,1,0-1.953.428l.118.538a2.021,2.021,0,0,1-1.261,2.314A3.992,3.992,0,0,0,32.5,17.841l-.018.178C32.321,18.013,32.161,18,32,18a13.848,13.848,0,0,0-1.847.138l-.861-2.367A3.016,3.016,0,0,0,30.38,13.46a3.077,3.077,0,0,0-.181-1.023,3,3,0,0,0-1.564-1.7,2.951,2.951,0,0,0-2.275-.1,5.008,5.008,0,0,0-3.29,4.7,4.825,4.825,0,0,0,.3,1.712l1.142,3.139c-.067.043-.132.092-.2.136l-.13-.166a3.993,3.993,0,0,0-3.96-1.453,2.021,2.021,0,0,1-2.3-1.292l-.186-.519a1,1,0,0,0-1.883.676l.186.518a4.027,4.027,0,0,0,4.581,2.576,2,2,0,0,1,1.985.729l.116.147c-.052.046-.108.085-.159.132a1,1,0,0,0,1.35,1.476,11.917,11.917,0,0,1,14.165-1.476l-10.1,10.1a.988.988,0,0,1,.189-1.288,3,3,0,1,0-3.852-4.6,7,7,0,0,0-.872,9.861,2.867,2.867,0,0,0,.281.281l-2.057,2.057A11.862,11.862,0,0,1,20,32a11.993,11.993,0,0,1,1.59-5.952,1,1,0,1,0-1.735-.994c-.11.191-.209.387-.309.582a2.015,2.015,0,0,1-1.7-1.86,3.994,3.994,0,0,0-2.424-3.453l-1.047-.448a1,1,0,1,0-.788,1.838l1.047.449a2,2,0,0,1,1.215,1.731,4.033,4.033,0,0,0,2.9,3.614,14.051,14.051,0,0,0-.536,2.119,2.018,2.018,0,0,1-2.188-1.275,3.988,3.988,0,0,0-3.333-2.585l-1.132-.12a1,1,0,1,0-.212,1.988l1.132.121a2,2,0,0,1,1.672,1.3,4.037,4.037,0,0,0,3.767,2.605c.031,0,.063-.01.094-.01,0,.118-.012.236-.012.354a14.007,14.007,0,0,0,.131,1.849l-2.36.859a3,3,0,0,0-5.035.657,2.952,2.952,0,0,0-.1,2.275,5.008,5.008,0,0,0,4.7,3.29,4.825,4.825,0,0,0,1.712-.3l3.139-1.142c.01.016.022.031.032.047Zm12.2-30.355a2.862,2.862,0,0,1-.176-1.017,3.006,3.006,0,0,1,1.976-2.822.976.976,0,0,1,.748.033.993.993,0,0,1,.521.557,1.1,1.1,0,0,1,.065.352,1,1,0,0,1-.657.942,1,1,0,0,0-.593,1.28l1.04,2.855a13.9,13.9,0,0,0-1.875.7ZM38.44,19.581l.087-.2a2,2,0,0,1,1.731-1.215,3.965,3.965,0,0,0,2.088-.75l-2.812,2.812C39.177,19.993,38.813,19.776,38.44,19.581ZM24.984,34.459a5,5,0,0,1,.623-7.043,1,1,0,1,1,1.284,1.533,3,3,0,0,0-.374,4.225c.01.013.016.028.025.041L25.159,34.6A.822.822,0,0,1,24.984,34.459Zm-8.627,4.295a2.862,2.862,0,0,1-1.017.176,3.006,3.006,0,0,1-2.822-1.976.972.972,0,0,1,.033-.748.994.994,0,0,1,.559-.521.98.98,0,0,1,1.292.592,1,1,0,0,0,1.28.593l2.863-1.043a13.73,13.73,0,0,0,.687,1.88Z"/><path d="M37.957,28.872a1,1,0,0,0-1.414,0L15.09,50.324a1,1,0,0,0,.059,1.468A25.993,25.993,0,0,0,51.792,15.149a1,1,0,0,0-1.468-.059L39.371,26.043a1,1,0,0,0,1.414,1.414l1.54-1.539A11.862,11.862,0,0,1,44,32,12.013,12.013,0,0,1,32,44a11.849,11.849,0,0,1-4.548-.9,1.014,1.014,0,0,0-.237-.106,11.942,11.942,0,0,1-1.3-.667l9.15-9.151A3.5,3.5,0,0,0,42,32.5C42,30,39.547,30,38.5,30l-.355,0A.991.991,0,0,0,37.957,28.872Zm7.771.432A13.764,13.764,0,0,0,45,26.821a4.563,4.563,0,0,0,4.226-2,1.015,1.015,0,0,1,1.826.309,1,1,0,0,1-.192.884l-1.347,1.7a4.344,4.344,0,0,1-2.715,1.575A4.282,4.282,0,0,1,45.728,29.3ZM25.842,44.558a2.015,2.015,0,0,1-1.856,1.674,3.986,3.986,0,0,0-3.451,2.423L20.086,49.7a1,1,0,1,0,1.838.788l.449-1.047a2,2,0,0,1,1.73-1.215,4.033,4.033,0,0,0,3.616-2.9,13.743,13.743,0,0,0,2.065.5A2.015,2.015,0,0,1,28.508,48a3.991,3.991,0,0,0-2.585,3.333l-.12,1.133a1,1,0,0,0,.888,1.1.973.973,0,0,0,.107.006,1,1,0,0,0,.993-.894l.121-1.133a2,2,0,0,1,1.3-1.671,4.035,4.035,0,0,0,2.6-3.881c.064,0,.126.007.19.007a13.9,13.9,0,0,0,5.708-1.229l1.047,2.872a2.872,2.872,0,0,1,.175,1.017,3,3,0,0,1-1.976,2.821.965.965,0,0,1-.749-.032,1,1,0,0,1-.52-.559,1.086,1.086,0,0,1-.065-.35,1,1,0,0,1,.657-.942,1,1,0,0,0-.7-1.876A3.019,3.019,0,0,0,33.62,50.54a3.1,3.1,0,0,0,.181,1.023,3.013,3.013,0,0,0,2.819,1.98,2.94,2.94,0,0,0,1.02-.183,5.01,5.01,0,0,0,3.29-4.7,4.858,4.858,0,0,0-.3-1.712L39.487,43.81c.079-.051.162-.095.241-.147a4.03,4.03,0,0,0,4.256,1.892,2,2,0,0,1,1.985.728l.7.9a1,1,0,1,0,1.572-1.235l-.7-.9A3.982,3.982,0,0,0,43.582,43.6a2.017,2.017,0,0,1-2.248-1.191,14.058,14.058,0,0,0,3.182-4.168l.187.08a2,2,0,0,1,1.215,1.73,4.03,4.03,0,0,0,3.671,3.762l.549.046q.042,0,.084,0a1,1,0,0,0,.082-2l-.549-.046a2.022,2.022,0,0,1-1.841-1.885,3.988,3.988,0,0,0-2.423-3.452l-.206-.089a13.9,13.9,0,0,0,.507-2.077l.181.02a2,2,0,0,1,1.671,1.3,4.034,4.034,0,0,0,3.766,2.6,3.967,3.967,0,0,0,.849-.091l.538-.118a1,1,0,0,0-.428-1.954l-.538.118a2.02,2.02,0,0,1-2.314-1.26,3.992,3.992,0,0,0-3.333-2.585l-.2-.021c0-.108.016-.213.016-.322,0-.225-.016-.447-.026-.67.056,0,.109.01.166.01a6.482,6.482,0,0,0,.958-.072,6.351,6.351,0,0,0,3.975-2.306l1.347-1.7a3.011,3.011,0,0,0-1.228-4.673,3.025,3.025,0,0,0-3.633,1.122,2.562,2.562,0,0,1-3.111.945L43.84,24.4l7.115-7.114A23.993,23.993,0,0,1,17.288,50.955l7.178-7.178A14.32,14.32,0,0,0,25.842,44.558ZM40,32.5a1.5,1.5,0,0,1-3,0c0-.322,0-.5,1.5-.5S40,32.178,40,32.5Z"/></g></g></svg>
