<svg height="460pt" viewBox="-102 0 460 460" width="460pt" xmlns="http://www.w3.org/2000/svg"><path d="m254.773438 166.636719-84.683594-93.636719c-1.132813-1.265625-2.75-1.992188-4.449219-2h-31.636719v-65c0-3.3125-2.6875-6-6-6s-6 2.6875-6 6v65h-31.636718c-1.699219.007812-3.316407.734375-4.449219 2l-84.523438 93.632812c-.953125 1.121094-1.4492185 2.558594-1.39062475 4.03125v283.335938c-.05859375 1.570312.51953175 3.101562 1.60156275 4.242188 1.0625 1.121093 2.535156 1.753906 4.082031 1.757812h244.636719c3.3125 0 6-2.6875 6-6v-283.335938c0-1.488281-.554688-2.921874-1.550781-4.027343zm-242.769532 281.363281v-275.023438l81.023438-89.976562h28.976562v56.5c-19.4375 3.128906-33.210937 20.667969-31.640625 40.292969 1.570313 19.625 17.953125 34.75 37.640625 34.75s36.074219-15.125 37.640625-34.75c1.570313-19.625-12.203125-37.164063-31.640625-40.292969v-56.5h28.972656l81.34375 89.953125v275.046875zm113.871094-296.898438c1.371094.527344 2.886719.527344 4.257812 0 13.757813 1.140626 24.167969 12.929688 23.59375 26.722657-.570312 13.792969-11.917968 24.679687-25.722656 24.679687-13.804687 0-25.152344-10.886718-25.722656-24.679687-.574219-13.792969 9.835938-25.582031 23.59375-26.722657zm0 0"/><path d="m184.003906 381h-112c-3.3125 0-6 2.6875-6 6s2.6875 6 6 6h112c3.3125 0 6-2.6875 6-6s-2.6875-6-6-6zm0 0"/><path d="m184.003906 411h-112c-3.3125 0-6 2.6875-6 6s2.6875 6 6 6h112c3.3125 0 6-2.6875 6-6s-2.6875-6-6-6zm0 0"/><path d="m74.003906 310c0 3.3125 2.6875 6 6 6h11.957032c5.355468 14.332031 16.214843 25.925781 30.164062 32.207031 13.953125 6.277344 29.832031 6.71875 44.109375 1.226563 3.09375-1.191406 4.636719-4.664063 3.445313-7.757813-1.191407-3.09375-4.664063-4.632812-7.757813-3.441406-21.863281 8.410156-46.53125-1.230469-56.902344-22.234375h44.984375c3.3125 0 6-2.6875 6-6s-2.6875-6-6-6h-48.917968c-.832032-4.621094-.9375-9.34375-.308594-14h55.226562c3.3125 0 6-2.6875 6-6s-2.6875-6-6-6h-51.910156c9.671875-22.265625 35.175781-32.949219 57.832031-24.234375 3.089844 1.191406 6.5625-.347656 7.753907-3.441406 1.191406-3.09375-.347657-6.566407-3.441407-7.757813-14.621093-5.628906-30.910156-5.027344-45.074219 1.667969-14.164062 6.695313-24.96875 18.894531-29.902343 33.765625h-11.257813c-3.3125 0-6 2.6875-6 6s2.6875 6 6 6h8.683594c-.492188 4.660156-.40625 9.359375.246094 14h-8.929688c-3.3125 0-6 2.6875-6 6zm0 0"/></svg>