<svg id="Capa_1" enable-background="new 0 0 512 512" height="512" viewBox="0 0 512 512" width="512" xmlns="http://www.w3.org/2000/svg"><g><path d="m256 0c-124.065 0-225 101.383-225 226 0 105.301 72.826 195.099 172.846 218.888l39.615 60.344c2.773 4.224 7.486 6.768 12.539 6.768s9.766-2.544 12.539-6.768l39.616-60.345c100.027-23.79 172.845-113.593 172.845-218.887 0-124.617-100.935-226-225-226zm39.9 416.886c-3.893.81-7.305 3.131-9.486 6.454l-30.414 46.328-30.413-46.328c-2.182-3.323-5.594-5.645-9.487-6.454-89.871-18.682-155.1-98.961-155.1-190.886 0-108.075 87.477-196 195-196s195 87.925 195 196c0 91.925-65.229 172.204-155.1 190.886z"/><path d="m256 301c-24.813 0-45 20.187-45 45s20.187 45 45 45 45-20.187 45-45-20.187-45-45-45zm0 60c-8.271 0-15-6.729-15-15s6.729-15 15-15 15 6.729 15 15-6.729 15-15 15z"/><path d="m256 60c-24.813 0-45 20.187-45 45v121c0 24.813 20.187 45 45 45s45-20.187 45-45v-121c0-24.813-20.187-45-45-45zm15 166c0 8.271-6.729 15-15 15s-15-6.729-15-15v-121c0-8.271 6.729-15 15-15s15 6.729 15 15z"/></g></svg>