<svg id="Capa_1" enable-background="new 0 0 512.001 512.001" height="512" viewBox="0 0 512.001 512.001" width="512" xmlns="http://www.w3.org/2000/svg"><g><path d="m407.001 110.001h-100c-8.284 0-15 6.716-15 15s6.716 15 15 15h100c8.284 0 15-6.716 15-15s-6.716-15-15-15z"/><path d="m275.001 242.001h-160c-8.284 0-15 6.716-15 15s6.716 15 15 15h160c8.284 0 15-6.716 15-15 0-8.285-6.716-15-15-15z"/><path d="m275.001 302.001h-160c-8.284 0-15 6.716-15 15s6.716 15 15 15h160c8.284 0 15-6.716 15-15s-6.716-15-15-15z"/><path d="m275.001 362.001h-160c-8.284 0-15 6.716-15 15s6.716 15 15 15h160c8.284 0 15-6.716 15-15s-6.716-15-15-15z"/><path d="m492.925 229.214c12.499-22.814 19.075-48.331 19.075-74.214 0-85.468-69.533-155-155-155-73.647 0-136.398 51.633-151.532 122.283-3.467-.184-6.956-.283-10.468-.283-107.523 0-195 87.477-195 195 0 34.412 9.157 68.117 26.545 97.932l-25.775 77.325c-1.797 5.39-.394 11.332 3.624 15.35 2.859 2.859 6.692 4.395 10.608 4.394 1.587 0 3.188-.252 4.741-.77l77.324-25.775c29.815 17.387 63.521 26.544 97.934 26.544 107.523 0 195-87.477 195-195 0-3.531-.1-7.039-.286-10.525 14.476-3.136 28.372-8.339 41.506-15.548l61.47 18.44c1.419.426 2.87.633 4.31.633 3.921 0 7.753-1.539 10.607-4.394 3.902-3.901 5.347-9.631 3.761-14.917zm-297.924 252.787c-31.12 0-61.569-8.868-88.057-25.645-2.429-1.538-5.217-2.328-8.027-2.328-1.594 0-3.195.254-4.742.77l-55.456 18.485 18.485-55.456c1.425-4.274.853-8.963-1.559-12.77-16.776-26.488-25.645-56.938-25.645-88.057 0-90.981 74.019-165 165-165s165 74.019 165 165-74.018 165.001-164.999 165.001zm267.333-250.357 12.295 40.984-40.983-12.295c-4.065-1.219-8.453-.66-12.081 1.537-11.256 6.817-23.247 11.74-35.784 14.726-5.978-28.259-18.089-54.28-34.878-76.596h56.099c8.284 0 15-6.716 15-15s-6.716-15-15-15h-84.017c-24.589-21.436-54.587-36.813-87.645-43.794 13.085-55.734 63.099-96.206 121.662-96.206 68.925 0 125 56.075 125 125 0 22.654-6.27 44.979-18.13 64.563-2.199 3.628-2.757 8.018-1.538 12.081z"/></g></svg>