<svg enable-background="new 0 0 24 24" height="512" viewBox="0 0 24 24" width="512" xmlns="http://www.w3.org/2000/svg"><path d="m10.5 20h-4c-.276 0-.5-.224-.5-.5v-1c0-1.378 1.122-2.5 2.5-2.5.827 0 1.5-.673 1.5-1.5s-.673-1.5-1.5-1.5h-2c-.276 0-.5-.224-.5-.5s.224-.5.5-.5h2c1.378 0 2.5 1.122 2.5 2.5s-1.122 2.5-2.5 2.5c-.827 0-1.5.673-1.5 1.5v.5h3.5c.276 0 .5.224.5.5s-.224.5-.5.5z"/><path d="m15.5 20h-2c-.276 0-.5-.224-.5-.5s.224-.5.5-.5h2c.827 0 1.5-.673 1.5-1.5s-.673-1.5-1.5-1.5h-2c-.276 0-.5-.224-.5-.5v-3c0-.276.224-.5.5-.5h4c.276 0 .5.224.5.5s-.224.5-.5.5h-3.5v2h1.5c1.378 0 2.5 1.122 2.5 2.5s-1.122 2.5-2.5 2.5z"/><path d="m21.5 24h-19c-1.378 0-2.5-1.122-2.5-2.5v-17c0-1.378 1.122-2.5 2.5-2.5h19c1.378 0 2.5 1.122 2.5 2.5v17c0 1.378-1.122 2.5-2.5 2.5zm-19-21c-.827 0-1.5.673-1.5 1.5v17c0 .827.673 1.5 1.5 1.5h19c.827 0 1.5-.673 1.5-1.5v-17c0-.827-.673-1.5-1.5-1.5z"/><path d="m23.5 9h-23c-.276 0-.5-.224-.5-.5s.224-.5.5-.5h23c.276 0 .5.224.5.5s-.224.5-.5.5z"/><path d="m5.5 5c-.276 0-.5-.224-.5-.5v-4c0-.276.224-.5.5-.5s.5.224.5.5v4c0 .276-.224.5-.5.5z"/><path d="m18.5 5c-.276 0-.5-.224-.5-.5v-4c0-.276.224-.5.5-.5s.5.224.5.5v4c0 .276-.224.5-.5.5z"/></svg>