<?xml version="1.0" encoding="iso-8859-1"?>
<!-- Generator: Adobe Illustrator 21.0.0, SVG Export Plug-In . SVG Version: 6.00 Build 0)  -->
<svg xmlns="http://www.w3.org/2000/svg" xmlns:xlink="http://www.w3.org/1999/xlink" version="1.1" id="Capa_1" x="0px" y="0px" viewBox="0 0 512.029 512.029" style="enable-background:new 0 0 512.029 512.029;" xml:space="preserve" width="512" height="512">
<path d="M504.642,497h-62.106c23.057-20.561,21.059-61.211-2.46-80.721c4.977,0.242,10.648-1.454,10.648-7.5  c0-11.629-3.893-21.203-11.569-28.453c-4.473-4.225-9.797-7.171-15.183-9.228c1.993-3.281,3.142-7.13,3.142-11.242  c0-11.975-9.741-21.717-21.715-21.717c-11.974,0-21.715,9.742-21.715,21.717c0,2.393,0.395,4.693,1.112,6.848H372.49  c0.1-23.706,2.431-48.838-3.591-71.983c-10.779-41.432-44.32-73.977-85.806-84.186v-17.866  c27.915-10.838,47.765-37.972,47.765-69.673c0-26.506-14.513-51.449-37.42-64.706c2.48-5.357,3.772-11.195,3.772-17.217  C297.211,18.425,278.788,0,256.142,0s-41.069,18.425-41.069,41.072c0,5.982,1.307,11.84,3.786,17.209  c-22.351,12.93-37.433,37.086-37.433,64.714c0,31.182,19.204,57.951,46.399,69.133v18.674c-23.685,5.617-39.045,17.209-39.739,17.74  c-0.002,0.001-0.003,0.003-0.005,0.004c-5.602,3.95-10.908,8.417-15.768,13.293c-6.669,6.69,3.73,17.506,10.624,10.589  c2.249-2.256,4.61-4.407,7.056-6.45c12.847,21.808,37.724,35.921,64.733,35.921c26.888,0,51.738-14.664,64.577-37.296  c24.302,19.355,38.497,48.662,38.364,80.06l-0.177,42.04h-9.437c-9.652,0-9.668,15,0,15h39.708v22.197  c-9.525,0.755-18.988,2.221-28.342,4.154c-4.185,0.865-18.277,3.943-18.394,4.06c-0.138,0.138-18.023-7.815-17.208-35.503  c0.002-0.073,0.003-0.147,0.003-0.221v-67.714c0-9.652-15-9.668-15,0v67.606c-0.599,21.318,7.527,34.24,14.931,41.543  c-18.866,6.379-41.57,15.904-67.079,30.116c-26.303-14.683-49.976-24.57-70.297-31.209c7.22-7.411,14.857-20.182,14.276-40.874  v-67.606c0-9.652-15-9.668-15,0v67.714c0,0.074,0.001,0.147,0.003,0.221c0.745,25.292-14.163,33.974-16.88,35.342  c-19.197-5.066-34.42-7.054-44.821-7.773v-22.053h39.708c9.653,0,9.719-15,0-15H152.75c-0.042-3.309-0.105-6.621-0.168-9.857  c-0.502-25.665-0.977-49.907,8.882-72.987c3.792-8.876-9.998-14.785-13.794-5.893c-11.125,26.043-10.597,53.053-10.086,79.173  c0.062,3.146,0.123,6.364,0.164,9.563h-10.832c0.718-2.154,1.112-4.455,1.112-6.848c0-11.975-9.741-21.717-21.715-21.717  s-21.715,9.742-21.715,21.717c0,4.112,1.149,7.96,3.142,11.241c-5.385,2.057-10.709,5.003-15.182,9.228  c-7.676,7.25-11.569,16.824-11.569,28.453c0,6.497,6.229,7.73,11.352,7.5c-22.79,21.492-26.84,58.196-2.746,80.721H7.642  c-4.142,0-7.5,3.358-7.5,7.5s3.358,7.5,7.5,7.5c0,0,328.5-0.097,332.961-0.097c9.012,0,7.471-14.903-1.219-14.903  c0,0-103.982-0.471-130.24-0.384c56.878-42.188,105.127-61.226,136.395-69.794c30.918-8.472,51.347-8.618,56.812-8.38  c22.186,0.967,40.482,14.469,41.5,38.19c0.888,20.676-15.529,38.31-35.848,40.368h-23.895c-9.384,0-10.088,14.117-0.835,14.968  c1.251,0.115,121.369,0.032,121.369,0.032C514.294,512,514.31,497,504.642,497z M230.073,41.072  c0-14.376,11.694-26.072,26.069-26.072s26.069,11.696,26.069,26.072c0,3.869-0.853,7.612-2.463,11.043  c-7.426-2.48-15.357-3.844-23.606-3.844c-8.25,0-16.183,1.364-23.609,3.845C230.924,48.679,230.073,44.918,230.073,41.072z   M256.142,63.271c17.803,0,33.801,7.842,44.751,20.242c-14.503,27.191-35.681,42.356-63.022,45.08  c-21.988,2.194-40.082-4.747-40.316-4.838c-0.369-0.145-0.744-0.25-1.119-0.334c-0.001-0.143-0.011-0.283-0.011-0.426  C196.426,90.063,223.214,63.271,256.142,63.271z M198.881,139.912c6.572,1.825,17.362,4.113,30.179,4.113  c3.111,0,6.344-0.135,9.662-0.444c21.503-2.005,50.37-11.871,71.42-46.056c3.66,7.731,5.717,16.363,5.717,25.47  c0,32.932-26.789,59.723-59.716,59.723C229.089,182.718,206.194,164.628,198.881,139.912z M254.727,266.9  c-22.206,0-42.555-11.726-52.502-29.716c6.473-3.861,18.763-10.098,34.424-12.903c3.575-0.64,6.177-3.75,6.177-7.382v-20.393  c4.325,0.782,8.77,1.212,13.317,1.212c4.068,0,8.058-0.339,11.952-0.968v19.82c0,3.601,2.559,6.694,6.097,7.368  c8.279,1.577,20.246,4.943,32.718,12.115C296.912,254.727,276.679,266.9,254.727,266.9z M434.817,401.279H402.76v-19.575  c7.456,0.628,18.899,2.729,26.096,9.527C431.787,394,433.763,397.321,434.817,401.279z M405.401,353.14  c3.703,0,6.715,3.013,6.715,6.717s-3.012,6.716-6.715,6.716s-6.715-3.013-6.715-6.716S401.698,353.14,405.401,353.14z   M106.314,353.14c3.703,0,6.715,3.013,6.715,6.717s-3.012,6.716-6.715,6.716s-6.715-3.013-6.715-6.716  S102.611,353.14,106.314,353.14z M82.825,391.263c7.243-6.869,18.677-8.964,26.129-9.577v19.593H76.898  C77.947,397.336,79.912,394.025,82.825,391.263z M76.172,433.707C82.142,426,94.142,419,109.82,418.486  c5.136-0.169,56.506-1.677,131.691,38.277c-2.266,1.373-4.547,2.773-6.851,4.22c-7.728-0.507-81.494-4.247-101.515,35.786  c-10.553-0.037-21.108-0.116-31.597-0.264C71.846,493.583,58.622,456.365,76.172,433.707z M185.507,496.706  c-11.355,0.046-22.837,0.084-34.372,0.089c9.986-11.209,27.825-16.393,42.438-18.785c6.474-1.06,12.804-1.659,18.465-1.981  c-7.995,5.614-16.165,11.662-24.492,18.197C186.663,494.918,185.986,495.77,185.507,496.706z"/>















</svg>
