<svg id="Capa_1" enable-background="new 0 0 511.854 511.854" height="512" viewBox="0 0 511.854 511.854" width="512" xmlns="http://www.w3.org/2000/svg"><path d="m495.343 416.766h-2.333c2.193-4.04 3.441-8.666 3.441-13.578 0-15.743-12.808-28.552-28.551-28.552h-152.712l-.017-149.149c2.484.52 5.056.797 7.692.797h26.936c10.685 0 20.888-4.579 27.992-12.562.765-.86 1.478-1.756 2.155-2.675 6.836 9.309 17.822 15.237 30.197 15.237h26.943c11.35 0 21.979-5.047 29.162-13.847 7.086-8.681 9.871-19.921 7.639-30.838-6.427-31.441-21.103-60.839-42.441-85.017-2.735-3.1-7.466-3.395-10.567-.66-3.1 2.736-3.395 7.467-.659 10.567 19.608 22.219 33.093 49.229 38.998 78.109 1.327 6.492-.338 13.188-4.569 18.37-4.327 5.302-10.729 8.342-17.563 8.342h-26.943c-11.695 0-21.337-8.825-22.429-20.529-.51-5.468-1.188-10.941-2.038-16.369-.018-.115-.033-.232-.052-.347-3.914-24.861-11.6-49.254-23.598-71.356-1.84-3.389-3.839-6.83-5.898-10.127-4.48-7.174-9.468-14.097-14.907-20.577-3.105-3.7-6.36-7.274-9.764-10.701-3.329-3.35-6.792-6.568-10.393-9.623-.184-.156-.372-.321-.555-.475 27.354 4.445 53.042 15.511 75.437 32.647 3.284 2.512 7.982 1.887 10.495-1.396 2.513-3.284 1.888-7.983-1.396-10.496-26.491-20.27-57.219-32.734-89.897-36.626l-.002-12.525c0-12.339-10.039-22.378-22.377-22.378-12.339 0-22.379 10.039-22.379 22.379l.001 12.59c-34.786 4.276-67.919 18.392-95.094 40.822-32.534 26.854-55.078 64.277-63.48 105.375-2.232 10.916.553 22.156 7.639 30.838 7.184 8.8 17.812 13.847 29.162 13.847h26.943c12.375 0 23.361-5.928 30.197-15.237.677.919 1.39 1.815 2.155 2.675 7.105 7.983 17.307 12.562 27.993 12.562h26.936c2.593 0 5.126-.265 7.572-.769l.001 10.113c0 4.135 3.353 7.486 7.488 7.486 4.134 0 7.486-3.353 7.486-7.488l-.002-16.899c2.824-2.132 5.34-4.652 7.464-7.484 2.093 2.79 4.569 5.276 7.344 7.389l.018 156.005h-14.809l-.012-104.155c0-4.135-3.353-7.486-7.488-7.486-4.134 0-7.486 3.353-7.486 7.488l.012 104.153h-91.311c4.275-7.084 12.045-11.831 20.905-11.831h33.858c12.023 0 21.803-9.781 21.803-21.804 0-12.022-9.781-21.803-21.803-21.803h-37.162c-32.53 0-59.519 24.136-64.026 55.438h-17.438c-.962 0-1.862-.473-2.394-1.249l-60.552-88.691c-4.402-6.411-11.344-10.865-19.047-12.22-7.612-1.34-15.197.356-21.371 4.771-12.562 8.983-15.667 26.65-6.933 39.367l67.535 98.882c.298.434.615.85.93 1.269h-11.906c-9.104 0-16.511 7.407-16.511 16.511v15.049c0 9.104 7.407 16.511 16.511 16.511h6.782v34.217c0 6.819 5.547 12.366 12.366 12.366h22.178c6.649 0 12.535-3.992 14.995-10.171.18-.455.317-.927.406-1.408l6.467-35.004h26.75c4.135 0 7.487-3.352 7.487-7.487s-3.352-7.487-7.487-7.487h-89.944c-.848 0-1.537-.69-1.537-1.537v-15.049c0-.848.689-1.538 1.537-1.538h433.824c.848 0 1.537.69 1.537 1.538v15.049c0 .848-.689 1.537-1.537 1.537h-308.985c-4.135 0-7.487 3.352-7.487 7.487s3.351 7.487 7.487 7.487h245.793l6.467 35.004c.089.482.225.953.406 1.408 2.459 6.179 8.346 10.171 14.995 10.171h22.178c6.819 0 12.367-5.547 12.367-12.366v-34.217h6.781c9.104 0 16.511-7.407 16.511-16.511v-15.049c-.001-9.103-7.408-16.51-16.512-16.51zm-209.978-393.954c0-4.083 3.322-7.404 7.405-7.404s7.404 3.322 7.404 7.405l.001 11.347c-2.433-.094-4.873-.143-7.322-.143-2.5 0-4.996.056-7.486.158zm-109.802 188.499h-26.943c-6.834 0-13.235-3.041-17.563-8.342-4.231-5.183-5.896-11.878-4.569-18.37 7.719-37.756 28.439-72.143 58.342-96.826 23.112-19.078 50.918-31.617 80.278-36.492-7.595 6.394-15.277 14.209-21.633 21.928-7.586 9.214-14.133 19.059-19.835 29.574-2.225 4.102-4.057 7.759-6.027 12.057-7.511 16.39-13.878 36.015-17.532 59.226-.018.114-.034.232-.052.347-.879 5.615-1.513 10.712-2.038 16.369-1.091 11.703-10.733 20.529-22.428 20.529zm87.28 0h-26.936c-6.509 0-12.478-2.679-16.806-7.543-6.977-7.841-5.789-17.326-4.307-26.85.013-.081.024-.165.036-.246 3.374-21.55 9.212-39.732 16.074-54.885.017-.037.034-.073.051-.11 3.657-8.062 7.898-15.889 12.7-23.338.153-.238.307-.48.461-.716 5.883-9.03 13.418-18.427 21.029-26.042 5.856-5.863 12.254-11.333 19.085-16.123.085-.06.167-.116.251-.175.3-.209.595-.413.885-.612v134.117c0 12.419-10.103 22.523-22.523 22.523zm37.496-156.638c13.03 8.952 35.461 28.117 52.155 62.188.253.521.512 1.041.759 1.562.135.282.268.568.402.853 11.062 23.59 16.233 47.461 18.528 67.004.692 6.353-1.333 12.718-5.578 17.488-4.328 4.864-10.297 7.543-16.806 7.543h-26.936c-12.419 0-22.524-10.104-22.524-22.523zm-217.065 410.164h26.211l-5.767 31.217c-.216.246-.531.393-.873.393h-19.57v-31.61zm48.747-48.071h-28.674c-7.401 0-14.319-3.642-18.498-9.728l-67.536-98.883c-4.159-6.055-2.684-14.456 3.288-18.726 2.225-1.591 4.867-2.42 7.622-2.42.808 0 1.626.072 2.445.215 3.768.663 7.157 2.831 9.286 5.932l60.551 88.692c3.339 4.861 8.853 7.763 14.749 7.763h16.765v27.155zm28.633-29.562v29.562h-13.66v-32.869c0-27.418 22.307-49.725 49.726-49.725h37.165c3.766 0 6.83 3.064 6.83 6.83s-3.064 6.83-6.83 6.83h-33.858c-21.711 0-39.373 17.662-39.373 39.372zm307.245 29.562h-292.272v-27.156h292.272c7.487 0 13.578 6.091 13.578 13.578s-6.091 13.578-13.578 13.578zm5.689 79.68h-19.571c-.342 0-.657-.147-.873-.393l-5.767-31.217h26.212v31.61z"/></svg>