<?xml version="1.0" encoding="iso-8859-1"?>
<!-- Generator: Adobe Illustrator 19.0.0, SVG Export Plug-In . SVG Version: 6.00 Build 0)  -->
<svg version="1.1" id="Capa_1" xmlns="http://www.w3.org/2000/svg" xmlns:xlink="http://www.w3.org/1999/xlink" x="0px" y="0px"
	 viewBox="0 0 512 512" style="enable-background:new 0 0 512 512;" xml:space="preserve">
<g>
	<g>
		<path d="M228.682,325.649L124.017,220.983c-13.347-13.348-34.338-14.51-49.017-3.487V97.5c0-8.435-2.801-16.228-7.52-22.499
			C79.907,75,90,85.093,90,97.5v90.07c0,4.142,3.358,7.5,7.5,7.5c4.142,0,7.5-3.358,7.5-7.5V97.5C105,76.822,88.178,60,67.5,60
			c-5.18,0-10.288,1.088-14.998,3.141C47.905,61.126,42.833,60,37.5,60C16.822,60,0,76.822,0,97.5v181
			c0,9.647,4.088,23.56,9.308,31.673L110,466.704V504.5c0,4.142,3.358,7.5,7.5,7.5h123.412c4.142,0,7.5-3.358,7.5-7.5V373.412
			C248.412,355.337,241.405,338.375,228.682,325.649z M233.412,497H125v-32.5c0-1.439-0.414-2.848-1.192-4.058L21.923,302.058
			C18.235,296.325,15,285.316,15,278.5v-181C15,85.093,25.093,75,37.5,75S60,85.093,60,97.5V248c0,0.26,0.013,0.517,0.039,0.771
			c0.308,9.175,3.956,18.258,10.944,25.246l104.625,104.625c2.929,2.929,7.678,2.929,10.606,0c2.929-2.929,2.929-7.678,0-10.606
			L81.59,263.41c-8.772-8.773-8.772-23.047,0-31.82c8.771-8.773,23.047-8.773,31.82,0l104.665,104.665
			c9.89,9.892,15.337,23.088,15.337,37.157V497z"/>
	</g>
</g>
<g>
	<g>
		<path d="M474.5,60c-5.333,0-10.405,1.126-15.002,3.142C454.788,61.088,449.68,60,444.5,60C423.822,60,407,76.822,407,97.5v90.07
			c0,4.142,3.357,7.5,7.5,7.5s7.5-3.358,7.5-7.5V97.5c0-12.407,10.094-22.5,22.5-22.5c-4.699,6.272-7.5,14.065-7.5,22.5v119.997
			c-14.678-11.022-35.669-9.861-49.017,3.487L283.317,325.649c-12.723,12.725-19.729,29.687-19.729,47.762V504.5
			c0,4.142,3.357,7.5,7.5,7.5H394.5c4.143,0,7.5-3.358,7.5-7.5v-37.796l100.692-156.532c5.22-8.114,9.308-22.026,9.308-31.672v-181
			C512,76.822,495.178,60,474.5,60z M497,278.5c0,6.816-3.235,17.824-6.923,23.558L388.192,460.442
			c-0.778,1.21-1.192,2.619-1.192,4.058V497H278.588V373.412c0-14.069,5.446-27.265,15.337-37.156L398.59,231.59
			c8.774-8.772,23.047-8.772,31.819,0c4.25,4.25,6.591,9.9,6.591,15.91s-2.341,11.66-6.591,15.91L325.784,368.035
			c-2.929,2.929-2.929,7.678,0,10.606c2.93,2.929,7.678,2.929,10.607,0l104.625-104.625c6.867-6.868,10.743-15.93,10.973-25.606
			c0.007-0.136,0.011-0.273,0.011-0.411V97.5c0-12.407,10.094-22.5,22.5-22.5S497,85.093,497,97.5V278.5z"/>
	</g>
</g>
<g>
	<g>
		<path d="M315.916,0C292.345,0,270.298,10.951,256,29.197C241.702,10.951,219.655,0,196.083,0C154.131,0,120,34.117,120,76.053
			c0,31.284,12.056,63.23,35.832,94.952c2.485,3.314,7.185,3.987,10.5,1.503c3.314-2.484,3.988-7.185,1.503-10.5
			C146.047,132.94,135,104.02,135,76.053C135,42.388,162.402,15,196.083,15c22.119,0,42.569,12.015,53.368,31.355
			c1.325,2.373,3.831,3.844,6.548,3.844c2.717,0,5.224-1.471,6.548-3.844C273.348,27.015,293.797,15,315.916,15
			C349.598,15,377,42.388,377,76.053c0,48.401-33.575,91.163-61.741,118.513c-24.806,24.087-49.932,40.816-59.257,46.701
			c-10.583-6.683-41.516-27.344-69.312-56.921c-2.837-3.019-7.583-3.166-10.602-0.329c-3.019,2.837-3.166,7.583-0.329,10.602
			c35.555,37.832,74.804,60.963,76.458,61.93c1.169,0.683,2.476,1.024,3.784,1.024c1.307,0,2.614-0.341,3.782-1.024
			c1.344-0.785,33.282-19.583,65.688-50.989c19.153-18.564,34.446-37.684,45.453-56.829C384.909,124.407,392,99.955,392,76.053
			C392,34.117,357.869,0,315.916,0z"/>
	</g>
</g>
<g>
</g>
<g>
</g>
<g>
</g>
<g>
</g>
<g>
</g>
<g>
</g>
<g>
</g>
<g>
</g>
<g>
</g>
<g>
</g>
<g>
</g>
<g>
</g>
<g>
</g>
<g>
</g>
<g>
</g>
</svg>
