<svg height="580pt" viewBox="-18 -55 580.00122 580" width="580pt" xmlns="http://www.w3.org/2000/svg"><path d="m303.515625 342.210938h-211.964844c-26.558593-.023438-48.085937-21.546876-48.109375-48.105469v-279.164063c0-2.238281.160156-4.476562.472656-6.6875-23.734374 3.359375-41.386718 23.65625-41.414062 47.625v279.171875c.027344 26.554688 21.550781 48.070313 48.101562 48.101563h265.410157zm0 0" fill="#d4e1f4"/><path d="m442.378906 56.226562v168.46875c-5.78125-1-11.628906-1.566406-17.496094-1.699218v-106.363282h-407.386718v212.785157c.027344 22.761719 18.476562 41.203125 41.238281 41.238281h244.082031c1.273438 5.953125 3.003906 11.800781 5.175782 17.492188h-249.257813c-32.421875-.042969-58.6914062-26.3125-58.734375-58.730469v-273.191407c.0390625-32.425781 26.3125-58.695312 58.734375-58.734374h324.910156c32.421875.035156 58.699219 26.308593 58.734375 58.734374zm-17.496094 42.910157v-42.910157c-.023437-22.761718-18.472656-41.214843-41.238281-41.238281h-324.910156c-22.761719.027344-41.210937 18.476563-41.238281 41.238281v42.910157zm0 0" fill="#0635c9"/><g fill="#1ae5be"><path d="m442.378906 224.695312c-5.78125-1-11.628906-1.566406-17.496094-1.699218-.984374-.03125-1.988281-.039063-2.988281-.039063-4.832031 0-8.746093 3.914063-8.746093 8.746094s3.914062 8.75 8.746093 8.75c3.597657 0 7.148438.183594 10.660157.535156 51.824218 5.339844 91.773437 48.085938 93.597656 100.152344 1.828125 52.066406-35.023438 97.507813-86.34375 106.472656-51.320313 8.960938-101.390625-21.292969-117.324219-70.898437-1.070313-3.339844-1.96875-6.726563-2.683594-10.160156h15.828125c3.195313-.003907 6.132813-1.742188 7.671875-4.542969 1.53125-2.796875 1.417969-6.210938-.292969-8.90625l-25.28125-39.683594c-1.609374-2.527344-4.390624-4.054687-7.382812-4.054687-2.988281 0-5.769531 1.527343-7.375 4.054687l-25.28125 39.683594c-1.71875 2.695312-1.824219 6.113281-.289062 8.914062 1.539062 2.796875 4.476562 4.535157 7.675781 4.535157h16.933593c.246094 1.371093.507813 2.75.808594 4.101562 1.273438 5.953125 3.003906 11.800781 5.175782 17.492188 20.976562 55.148437 78.449218 87.339843 136.4375 76.429687 57.980468-10.914063 99.820312-61.796875 99.316406-120.800781-.503906-59-43.207032-109.164063-101.367188-119.082032zm-141.363281 124.363282 9.339844-14.65625 9.332031 14.65625zm0 0"/><path d="m415.960938 282.628906c-4.835938 0-8.75 3.914063-8.75 8.746094v62.347656c0 4.828125 3.914062 8.746094 8.75 8.746094h47.5c4.828124 0 8.746093-3.917969 8.746093-8.746094 0-4.832031-3.917969-8.75-8.746093-8.75h-38.753907v-53.597656c-.003906-4.828125-3.917969-8.742188-8.746093-8.746094zm0 0"/><path d="m196.042969 33.25h-.070313c-13.503906-.027344-24.46875 10.902344-24.488281 24.40625-.023437 13.507812 10.90625 24.46875 24.414063 24.488281h.074218c13.464844-.011719 24.390625-10.902343 24.453125-24.367187.035157-13.5-10.875-24.480469-24.382812-24.527344zm-.070313 31.402344h-.015625c-3.835937-.011719-6.945312-3.136719-6.933593-6.976563.015624-3.828125 3.121093-6.925781 6.949218-6.933593h.023438c3.839844.007812 6.949218 3.125 6.941406 6.96875-.003906 3.839843-3.125 6.945312-6.964844 6.941406zm0 0"/><path d="m125.515625 33.035156h-.078125c-13.5-.019531-24.464844 10.910156-24.484375 24.410156-.019531 13.503907 10.910156 24.464844 24.414063 24.484376h.070312c13.46875-.019532 24.398438-10.910157 24.457031-24.375v-.078126c-.015625-13.46875-10.910156-24.390624-24.378906-24.441406zm-.078125 31.402344h-.023438c-3.839843-.007812-6.945312-3.125-6.941406-6.96875.003906-3.839844 3.125-6.945312 6.964844-6.941406h.027344c3.839844.011718 6.945312 3.136718 6.933594 6.972656-.019532 3.832031-3.128907 6.929688-6.960938 6.9375zm0 0"/><path d="m54.984375 32.808594h-.074219c-13.503906-.019532-24.464844 10.910156-24.488281 24.414062-.019531 13.5 10.910156 24.464844 24.410156 24.484375h.078125c13.464844-.015625 24.382813-10.90625 24.441406-24.367187v-.089844c-.007812-13.460938-10.898437-24.386719-24.367187-24.441406zm-.074219 31.402344h-.023437c-3.839844-.003907-6.949219-3.125-6.945313-6.964844.007813-3.84375 3.128906-6.953125 6.96875-6.941406h.027344c3.839844.003906 6.945312 3.125 6.941406 6.964843-.011718 3.84375-3.128906 6.953125-6.96875 6.941407zm0 0"/></g></svg>